<svg xmlns="http://www.w3.org/2000/svg" width="314" height="71" viewBox="0 0 314 71">
  <g id="Group_60" data-name="Group 60" transform="translate(-10 -741.63)">
    <g id="Path_28" data-name="Path 28" transform="translate(10 741.63)" fill="#fff5eb">
      <path d="M 309 70 L 5 70 C 2.794374942779541 70 1 68.20562744140625 1 66 L 1 5 C 1 2.794374942779541 2.794374942779541 1 5 1 L 296 1 C 300.5408630371094 1 304.8099670410156 2.768291711807251 308.0208435058594 5.979166507720947 C 311.2317199707031 9.190041542053223 313 13.45912456512451 313 18 L 313 66 C 313 68.20562744140625 311.2056274414062 70 309 70 Z" stroke="none"/>
      <path d="M 5 2 C 3.345794677734375 2 2 3.345794677734375 2 5 L 2 66 C 2 67.65420532226562 3.345794677734375 69 5 69 L 309 69 C 310.6542053222656 69 312 67.65420532226562 312 66 L 312 18 C 312 13.72624969482422 310.335693359375 9.708290100097656 307.313720703125 6.686294555664062 C 304.2917175292969 3.664291381835938 300.2737426757812 2 296 2 L 5 2 M 5 0 L 296 0 C 305.9411315917969 0 314 8.058876037597656 314 18 L 314 66 C 314 68.76141357421875 311.7614135742188 71 309 71 L 5 71 C 2.23858642578125 71 0 68.76141357421875 0 66 L 0 5 C 0 2.23858642578125 2.23858642578125 0 5 0 Z" stroke="none" fill="#c75f17"/>
    </g>
    <text id="Talk_to_Jazmiro_Stylist" data-name="Talk to Jazmiro Stylist" transform="translate(90 785.63)" fill="#c75f00" font-size="20" font-family="HelveticaNeue-Medium, Helvetica Neue" font-weight="500"><tspan x="0" y="0">Talk to Jazmiro Stylist</tspan></text>
    <path id="Icon_ionic-logo-whatsapp" data-name="Icon ionic-logo-whatsapp" d="M22.632,2.25a19.579,19.579,0,0,0-19.655,19.5A19.3,19.3,0,0,0,5.8,31.824L2.25,42.287,13.132,38.83A19.688,19.688,0,0,0,42.287,21.753,19.579,19.579,0,0,0,22.632,2.25ZM32.4,29.16c-.462,1.146-2.554,2.192-3.476,2.241s-.948.714-5.973-1.469-8.048-7.493-8.286-7.835a9.639,9.639,0,0,1-1.854-5.224,5.569,5.569,0,0,1,1.913-4.086,1.925,1.925,0,0,1,1.361-.573c.4-.006.652-.012.945,0s.732-.061,1.113.951,1.291,3.5,1.407,3.752a.911.911,0,0,1,.009.873,3.413,3.413,0,0,1-.533.812c-.262.281-.552.629-.786.844-.261.238-.534.5-.259,1.007A15.04,15.04,0,0,0,20.646,24a13.713,13.713,0,0,0,3.941,2.62c.493.268.787.239,1.093-.083s1.308-1.407,1.662-1.892.685-.391,1.139-.208,2.874,1.48,3.367,1.747.822.4.939.617A4.127,4.127,0,0,1,32.4,29.16Z" transform="translate(33.636 755.295)" fill="#ff8c00"/>
  </g>
</svg>
